<mxfile host="Electron" modified="2023-10-29T03:01:06.525Z" agent="Mozilla/5.0 (X11; Linux x86_64) AppleWebKit/537.36 (KHTML, like Gecko) draw.io/21.4.0 Chrome/112.0.5615.204 Electron/24.5.1 Safari/537.36" etag="QqnmD_vqkGU_mja70M2h" version="21.4.0" type="device" pages="5">
  <diagram name="buildFile_System" id="AyqEXeWMhtzKa8d_qZ4f">
    <mxGraphModel dx="954" dy="663" grid="1" gridSize="10" guides="1" tooltips="1" connect="1" arrows="1" fold="1" page="1" pageScale="1" pageWidth="850" pageHeight="1100" math="0" shadow="0">
      <root>
        <mxCell id="0" />
        <mxCell id="1" parent="0" />
        <mxCell id="aFbkOvgx6lqWaNmZWEl3-2" value="" style="rounded=0;whiteSpace=wrap;html=1;strokeWidth=2;" parent="1" vertex="1">
          <mxGeometry x="160" y="120" width="340" height="260" as="geometry" />
        </mxCell>
        <mxCell id="aFbkOvgx6lqWaNmZWEl3-12" style="rounded=0;orthogonalLoop=1;jettySize=auto;html=1;exitX=1;exitY=0.5;exitDx=0;exitDy=0;endArrow=none;endFill=0;dashed=1;" parent="1" source="aFbkOvgx6lqWaNmZWEl3-3" edge="1">
          <mxGeometry relative="1" as="geometry">
            <mxPoint x="300" y="165" as="targetPoint" />
          </mxGeometry>
        </mxCell>
        <mxCell id="aFbkOvgx6lqWaNmZWEl3-3" value="Project" style="text;html=1;strokeColor=none;fillColor=none;align=center;verticalAlign=middle;whiteSpace=wrap;rounded=0;fontSize=18;fontStyle=1" parent="1" vertex="1">
          <mxGeometry x="170" y="130" width="60" height="30" as="geometry" />
        </mxCell>
        <mxCell id="aFbkOvgx6lqWaNmZWEl3-4" value="" style="rounded=0;whiteSpace=wrap;html=1;strokeWidth=2;" parent="1" vertex="1">
          <mxGeometry x="240" y="190" width="240" height="80" as="geometry" />
        </mxCell>
        <mxCell id="aFbkOvgx6lqWaNmZWEl3-5" value="" style="rounded=0;whiteSpace=wrap;html=1;strokeWidth=2;" parent="1" vertex="1">
          <mxGeometry x="240" y="280" width="240" height="80" as="geometry" />
        </mxCell>
        <mxCell id="aFbkOvgx6lqWaNmZWEl3-6" value="TaskContainer" style="text;html=1;strokeColor=none;fillColor=none;align=center;verticalAlign=middle;whiteSpace=wrap;rounded=0;fontSize=18;fontStyle=1" parent="1" vertex="1">
          <mxGeometry x="285" y="150" width="150" height="30" as="geometry" />
        </mxCell>
        <mxCell id="aFbkOvgx6lqWaNmZWEl3-10" value="" style="rounded=0;whiteSpace=wrap;html=1;strokeWidth=2;shadow=0;fillColor=none;" parent="1" vertex="1">
          <mxGeometry x="228" y="155" width="260" height="215" as="geometry" />
        </mxCell>
        <mxCell id="aFbkOvgx6lqWaNmZWEl3-11" value="&lt;font color=&quot;#626060&quot;&gt;&amp;nbsp;一一对应&lt;/font&gt;" style="text;html=1;strokeColor=none;fillColor=none;align=center;verticalAlign=middle;whiteSpace=wrap;rounded=0;" parent="1" vertex="1">
          <mxGeometry x="250" y="130" width="60" height="30" as="geometry" />
        </mxCell>
        <mxCell id="aFbkOvgx6lqWaNmZWEl3-13" value="task1" style="text;html=1;strokeColor=none;fillColor=none;align=center;verticalAlign=middle;whiteSpace=wrap;rounded=0;fontSize=18;fontStyle=1" parent="1" vertex="1">
          <mxGeometry x="240" y="190" width="60" height="30" as="geometry" />
        </mxCell>
        <mxCell id="aFbkOvgx6lqWaNmZWEl3-14" value="task2" style="text;html=1;strokeColor=none;fillColor=none;align=center;verticalAlign=middle;whiteSpace=wrap;rounded=0;fontSize=18;fontStyle=1" parent="1" vertex="1">
          <mxGeometry x="240" y="280" width="60" height="30" as="geometry" />
        </mxCell>
        <mxCell id="aFbkOvgx6lqWaNmZWEl3-15" value="&lt;span style=&quot;font-weight: normal;&quot;&gt;Action1&lt;/span&gt;" style="text;html=1;strokeColor=none;fillColor=none;align=center;verticalAlign=middle;whiteSpace=wrap;rounded=0;fontSize=18;fontStyle=1" parent="1" vertex="1">
          <mxGeometry x="360" y="190" width="60" height="30" as="geometry" />
        </mxCell>
        <mxCell id="aFbkOvgx6lqWaNmZWEl3-16" value="&lt;span style=&quot;font-weight: normal;&quot;&gt;Action2&lt;/span&gt;" style="text;html=1;strokeColor=none;fillColor=none;align=center;verticalAlign=middle;whiteSpace=wrap;rounded=0;fontSize=18;fontStyle=1" parent="1" vertex="1">
          <mxGeometry x="360" y="215" width="60" height="30" as="geometry" />
        </mxCell>
        <mxCell id="aFbkOvgx6lqWaNmZWEl3-17" value="&lt;span style=&quot;font-weight: 400;&quot;&gt;Action3&lt;/span&gt;" style="text;html=1;strokeColor=none;fillColor=none;align=center;verticalAlign=middle;whiteSpace=wrap;rounded=0;fontSize=18;fontStyle=1" parent="1" vertex="1">
          <mxGeometry x="360" y="240" width="60" height="30" as="geometry" />
        </mxCell>
        <mxCell id="aFbkOvgx6lqWaNmZWEl3-18" value="&lt;span style=&quot;font-weight: normal;&quot;&gt;Action1&lt;/span&gt;" style="text;html=1;strokeColor=none;fillColor=none;align=center;verticalAlign=middle;whiteSpace=wrap;rounded=0;fontSize=18;fontStyle=1" parent="1" vertex="1">
          <mxGeometry x="360" y="280" width="60" height="30" as="geometry" />
        </mxCell>
        <mxCell id="aFbkOvgx6lqWaNmZWEl3-19" value="&lt;span style=&quot;font-weight: normal;&quot;&gt;Action2&lt;/span&gt;" style="text;html=1;strokeColor=none;fillColor=none;align=center;verticalAlign=middle;whiteSpace=wrap;rounded=0;fontSize=18;fontStyle=1" parent="1" vertex="1">
          <mxGeometry x="360" y="305" width="60" height="30" as="geometry" />
        </mxCell>
        <mxCell id="aFbkOvgx6lqWaNmZWEl3-20" value="&lt;span style=&quot;font-weight: 400;&quot;&gt;Action3&lt;/span&gt;" style="text;html=1;strokeColor=none;fillColor=none;align=center;verticalAlign=middle;whiteSpace=wrap;rounded=0;fontSize=18;fontStyle=1" parent="1" vertex="1">
          <mxGeometry x="360" y="330" width="60" height="30" as="geometry" />
        </mxCell>
        <mxCell id="aFbkOvgx6lqWaNmZWEl3-23" value="&lt;span style=&quot;color: rgb(0, 0, 0); font-family: Helvetica; font-size: 20px; font-style: normal; font-variant-ligatures: normal; font-variant-caps: normal; font-weight: 400; letter-spacing: normal; orphans: 2; text-align: left; text-indent: 0px; text-transform: none; widows: 2; word-spacing: 0px; -webkit-text-stroke-width: 0px; background-color: rgb(251, 251, 251); text-decoration-thickness: initial; text-decoration-style: initial; text-decoration-color: initial; float: none; display: inline !important;&quot;&gt;领域对象模型&lt;/span&gt;" style="text;html=1;strokeColor=none;fillColor=none;align=center;verticalAlign=middle;whiteSpace=wrap;rounded=0;" parent="1" vertex="1">
          <mxGeometry x="260" y="390" width="130" height="30" as="geometry" />
        </mxCell>
      </root>
    </mxGraphModel>
  </diagram>
  <diagram id="fGmFaf6XK5c8RfBr8UA5" name="project-model">
    <mxGraphModel dx="954" dy="663" grid="1" gridSize="10" guides="1" tooltips="1" connect="1" arrows="1" fold="1" page="1" pageScale="1" pageWidth="850" pageHeight="1100" math="0" shadow="0">
      <root>
        <mxCell id="0" />
        <mxCell id="1" parent="0" />
        <mxCell id="3VJqtiFKK7VmhB2btbHi-1" value="app" style="shape=folder;fontStyle=0;spacingTop=10;tabWidth=40;tabHeight=10;tabPosition=left;html=1;whiteSpace=wrap;fontSize=15;" parent="1" vertex="1">
          <mxGeometry x="160" y="400" width="120" height="70" as="geometry" />
        </mxCell>
        <mxCell id="3VJqtiFKK7VmhB2btbHi-3" value="gradlew" style="shape=note;whiteSpace=wrap;html=1;backgroundOutline=1;darkOpacity=0.05;size=17;fontSize=15;fontStyle=0" parent="1" vertex="1">
          <mxGeometry x="160" y="320" width="120" height="60" as="geometry" />
        </mxCell>
        <mxCell id="3VJqtiFKK7VmhB2btbHi-4" value="&lt;font style=&quot;&quot;&gt;&lt;font style=&quot;font-size: 15px;&quot;&gt;gradlew.bat&lt;/font&gt;&lt;br&gt;&lt;span style=&quot;font-size: 14px;&quot;&gt;包装器启动文件&lt;/span&gt;&lt;/font&gt;" style="shape=note;whiteSpace=wrap;html=1;backgroundOutline=1;darkOpacity=0.05;size=17;fontSize=15;fontStyle=0" parent="1" vertex="1">
          <mxGeometry x="160" y="240" width="120" height="60" as="geometry" />
        </mxCell>
        <mxCell id="3VJqtiFKK7VmhB2btbHi-5" value="settings.gradle" style="shape=note;whiteSpace=wrap;html=1;backgroundOutline=1;darkOpacity=0.05;size=17;fontSize=15;fontStyle=0" parent="1" vertex="1">
          <mxGeometry x="160" y="70" width="120" height="60" as="geometry" />
        </mxCell>
        <mxCell id="3VJqtiFKK7VmhB2btbHi-6" value="gradle&lt;br&gt;&lt;font style=&quot;font-size: 14px;&quot;&gt;封&lt;/font&gt;&lt;font style=&quot;font-size: 14px;&quot;&gt;装包装器文件夹&lt;/font&gt;" style="shape=folder;fontStyle=0;spacingTop=10;tabWidth=40;tabHeight=10;tabPosition=left;html=1;whiteSpace=wrap;fontSize=15;" parent="1" vertex="1">
          <mxGeometry x="160" y="150" width="120" height="70" as="geometry" />
        </mxCell>
        <mxCell id="3VJqtiFKK7VmhB2btbHi-8" style="edgeStyle=orthogonalEdgeStyle;rounded=0;orthogonalLoop=1;jettySize=auto;html=1;exitX=0;exitY=0;exitDx=0;exitDy=40;exitPerimeter=0;entryX=0;entryY=0;entryDx=120;entryDy=40;entryPerimeter=0;fontSize=11;strokeWidth=2;endArrow=none;endFill=0;" parent="1" source="3VJqtiFKK7VmhB2btbHi-7" target="3VJqtiFKK7VmhB2btbHi-1" edge="1">
          <mxGeometry relative="1" as="geometry" />
        </mxCell>
        <mxCell id="3VJqtiFKK7VmhB2btbHi-7" value="src" style="shape=folder;fontStyle=0;spacingTop=10;tabWidth=40;tabHeight=10;tabPosition=left;html=1;whiteSpace=wrap;fontSize=15;" parent="1" vertex="1">
          <mxGeometry x="320" y="400" width="120" height="70" as="geometry" />
        </mxCell>
        <mxCell id="3VJqtiFKK7VmhB2btbHi-9" value="build.gradle&lt;br&gt;&lt;font style=&quot;font-size: 14px;&quot;&gt;构建文件&lt;/font&gt;" style="shape=note;whiteSpace=wrap;html=1;backgroundOutline=1;darkOpacity=0.05;size=17;fontSize=15;fontStyle=0" parent="1" vertex="1">
          <mxGeometry x="320" y="480" width="120" height="60" as="geometry" />
        </mxCell>
        <mxCell id="3VJqtiFKK7VmhB2btbHi-10" style="edgeStyle=orthogonalEdgeStyle;rounded=0;orthogonalLoop=1;jettySize=auto;html=1;entryX=0;entryY=0;entryDx=120;entryDy=40;entryPerimeter=0;fontSize=11;strokeWidth=2;endArrow=none;endFill=0;" parent="1" source="3VJqtiFKK7VmhB2btbHi-9" target="3VJqtiFKK7VmhB2btbHi-1" edge="1">
          <mxGeometry relative="1" as="geometry">
            <mxPoint x="330" y="450" as="sourcePoint" />
            <mxPoint x="290" y="450" as="targetPoint" />
          </mxGeometry>
        </mxCell>
        <mxCell id="3VJqtiFKK7VmhB2btbHi-11" value="wrapper" style="shape=folder;fontStyle=0;spacingTop=10;tabWidth=40;tabHeight=10;tabPosition=left;html=1;whiteSpace=wrap;fontSize=15;" parent="1" vertex="1">
          <mxGeometry x="320" y="150" width="120" height="70" as="geometry" />
        </mxCell>
        <mxCell id="3VJqtiFKK7VmhB2btbHi-13" value="gradle-wrapper&lt;br&gt;.jar" style="shape=note;whiteSpace=wrap;html=1;backgroundOutline=1;darkOpacity=0.05;size=12;fontSize=15;fontStyle=0" parent="1" vertex="1">
          <mxGeometry x="480" y="160" width="120" height="60" as="geometry" />
        </mxCell>
        <mxCell id="3VJqtiFKK7VmhB2btbHi-14" value="gradle-wrapper&lt;br&gt;.properties" style="shape=note;whiteSpace=wrap;html=1;backgroundOutline=1;darkOpacity=0.05;size=13;fontSize=15;fontStyle=0" parent="1" vertex="1">
          <mxGeometry x="480" y="230" width="120" height="60" as="geometry" />
        </mxCell>
        <mxCell id="3VJqtiFKK7VmhB2btbHi-15" style="edgeStyle=orthogonalEdgeStyle;rounded=0;orthogonalLoop=1;jettySize=auto;html=1;entryX=0;entryY=0;entryDx=120;entryDy=40;entryPerimeter=0;fontSize=11;strokeWidth=2;endArrow=none;endFill=0;exitX=0;exitY=0.5;exitDx=0;exitDy=0;exitPerimeter=0;" parent="1" source="3VJqtiFKK7VmhB2btbHi-14" target="3VJqtiFKK7VmhB2btbHi-11" edge="1">
          <mxGeometry relative="1" as="geometry">
            <mxPoint x="330" y="590" as="sourcePoint" />
            <mxPoint x="290" y="520" as="targetPoint" />
          </mxGeometry>
        </mxCell>
        <mxCell id="3VJqtiFKK7VmhB2btbHi-16" style="edgeStyle=orthogonalEdgeStyle;rounded=0;orthogonalLoop=1;jettySize=auto;html=1;entryX=0;entryY=0;entryDx=120;entryDy=40;entryPerimeter=0;fontSize=11;strokeWidth=2;endArrow=none;endFill=0;exitX=0;exitY=0.5;exitDx=0;exitDy=0;exitPerimeter=0;" parent="1" source="3VJqtiFKK7VmhB2btbHi-13" target="3VJqtiFKK7VmhB2btbHi-11" edge="1">
          <mxGeometry relative="1" as="geometry">
            <mxPoint x="490" y="270" as="sourcePoint" />
            <mxPoint x="450" y="200" as="targetPoint" />
          </mxGeometry>
        </mxCell>
        <mxCell id="3VJqtiFKK7VmhB2btbHi-18" style="edgeStyle=orthogonalEdgeStyle;rounded=0;orthogonalLoop=1;jettySize=auto;html=1;entryX=0;entryY=0;entryDx=120;entryDy=40;entryPerimeter=0;fontSize=11;strokeWidth=2;endArrow=none;endFill=0;exitX=0;exitY=0;exitDx=0;exitDy=40;exitPerimeter=0;" parent="1" source="3VJqtiFKK7VmhB2btbHi-11" target="3VJqtiFKK7VmhB2btbHi-6" edge="1">
          <mxGeometry relative="1" as="geometry">
            <mxPoint x="490" y="200" as="sourcePoint" />
            <mxPoint x="450" y="200" as="targetPoint" />
          </mxGeometry>
        </mxCell>
        <mxCell id="3VJqtiFKK7VmhB2btbHi-28" style="edgeStyle=orthogonalEdgeStyle;shape=connector;rounded=0;orthogonalLoop=1;jettySize=auto;html=1;exitX=0;exitY=0;exitDx=120;exitDy=40;exitPerimeter=0;entryX=0;entryY=0.5;entryDx=0;entryDy=0;entryPerimeter=0;labelBackgroundColor=default;strokeColor=default;strokeWidth=2;fontFamily=Helvetica;fontSize=14;fontColor=default;endArrow=none;endFill=0;" parent="1" source="3VJqtiFKK7VmhB2btbHi-20" target="3VJqtiFKK7VmhB2btbHi-5" edge="1">
          <mxGeometry relative="1" as="geometry" />
        </mxCell>
        <mxCell id="3VJqtiFKK7VmhB2btbHi-29" style="edgeStyle=orthogonalEdgeStyle;shape=connector;rounded=0;orthogonalLoop=1;jettySize=auto;html=1;exitX=0;exitY=0;exitDx=120;exitDy=40;exitPerimeter=0;entryX=0;entryY=0;entryDx=0;entryDy=40;entryPerimeter=0;labelBackgroundColor=default;strokeColor=default;strokeWidth=2;fontFamily=Helvetica;fontSize=14;fontColor=default;endArrow=none;endFill=0;" parent="1" source="3VJqtiFKK7VmhB2btbHi-20" target="3VJqtiFKK7VmhB2btbHi-6" edge="1">
          <mxGeometry relative="1" as="geometry" />
        </mxCell>
        <mxCell id="3VJqtiFKK7VmhB2btbHi-30" style="edgeStyle=orthogonalEdgeStyle;shape=connector;rounded=0;orthogonalLoop=1;jettySize=auto;html=1;exitX=0;exitY=0;exitDx=120;exitDy=40;exitPerimeter=0;labelBackgroundColor=default;strokeColor=default;strokeWidth=2;fontFamily=Helvetica;fontSize=14;fontColor=default;endArrow=none;endFill=0;" parent="1" source="3VJqtiFKK7VmhB2btbHi-20" target="3VJqtiFKK7VmhB2btbHi-4" edge="1">
          <mxGeometry relative="1" as="geometry" />
        </mxCell>
        <mxCell id="3VJqtiFKK7VmhB2btbHi-31" style="edgeStyle=orthogonalEdgeStyle;shape=connector;rounded=0;orthogonalLoop=1;jettySize=auto;html=1;exitX=0;exitY=0;exitDx=120;exitDy=40;exitPerimeter=0;entryX=0;entryY=0.5;entryDx=0;entryDy=0;entryPerimeter=0;labelBackgroundColor=default;strokeColor=default;strokeWidth=2;fontFamily=Helvetica;fontSize=14;fontColor=default;endArrow=none;endFill=0;" parent="1" source="3VJqtiFKK7VmhB2btbHi-20" target="3VJqtiFKK7VmhB2btbHi-3" edge="1">
          <mxGeometry relative="1" as="geometry" />
        </mxCell>
        <mxCell id="3VJqtiFKK7VmhB2btbHi-32" style="edgeStyle=orthogonalEdgeStyle;shape=connector;rounded=0;orthogonalLoop=1;jettySize=auto;html=1;exitX=0;exitY=0;exitDx=120;exitDy=40;exitPerimeter=0;entryX=0;entryY=0;entryDx=0;entryDy=40;entryPerimeter=0;labelBackgroundColor=default;strokeColor=default;strokeWidth=2;fontFamily=Helvetica;fontSize=14;fontColor=default;endArrow=none;endFill=0;" parent="1" source="3VJqtiFKK7VmhB2btbHi-20" target="3VJqtiFKK7VmhB2btbHi-1" edge="1">
          <mxGeometry relative="1" as="geometry" />
        </mxCell>
        <mxCell id="3VJqtiFKK7VmhB2btbHi-20" value="Project" style="shape=folder;fontStyle=0;spacingTop=10;tabWidth=40;tabHeight=10;tabPosition=left;html=1;whiteSpace=wrap;fontSize=15;" parent="1" vertex="1">
          <mxGeometry y="230" width="120" height="70" as="geometry" />
        </mxCell>
        <mxCell id="tqIfUt4OLtZIY9J04kCn-1" value="gradle wrapper" style="text;html=1;strokeColor=none;fillColor=none;align=center;verticalAlign=middle;whiteSpace=wrap;rounded=0;" parent="1" vertex="1">
          <mxGeometry x="335" y="110" width="105" height="30" as="geometry" />
        </mxCell>
      </root>
    </mxGraphModel>
  </diagram>
  <diagram id="anHcdOjX5rQq5unucxJu" name="gradle_wrapper">
    <mxGraphModel dx="954" dy="663" grid="1" gridSize="10" guides="1" tooltips="1" connect="1" arrows="1" fold="1" page="1" pageScale="1" pageWidth="850" pageHeight="1100" math="0" shadow="0">
      <root>
        <mxCell id="0" />
        <mxCell id="1" parent="0" />
        <mxCell id="r6EsQnlumm87LjBTZvid-4" style="edgeStyle=orthogonalEdgeStyle;shape=connector;rounded=0;orthogonalLoop=1;jettySize=auto;html=1;exitX=0.5;exitY=1;exitDx=0;exitDy=0;labelBackgroundColor=default;strokeColor=default;strokeWidth=2;fontFamily=Helvetica;fontSize=14;fontColor=default;endArrow=blockThin;endFill=1;" parent="1" source="r6EsQnlumm87LjBTZvid-1" target="r6EsQnlumm87LjBTZvid-3" edge="1">
          <mxGeometry relative="1" as="geometry" />
        </mxCell>
        <mxCell id="r6EsQnlumm87LjBTZvid-5" style="edgeStyle=orthogonalEdgeStyle;shape=connector;rounded=0;orthogonalLoop=1;jettySize=auto;html=1;exitX=1;exitY=0.5;exitDx=0;exitDy=0;entryX=0;entryY=0.5;entryDx=0;entryDy=0;labelBackgroundColor=default;strokeColor=default;strokeWidth=2;fontFamily=Helvetica;fontSize=14;fontColor=default;endArrow=blockThin;endFill=1;" parent="1" source="r6EsQnlumm87LjBTZvid-1" target="r6EsQnlumm87LjBTZvid-2" edge="1">
          <mxGeometry relative="1" as="geometry" />
        </mxCell>
        <mxCell id="r6EsQnlumm87LjBTZvid-1" value="Gradle Build" style="rounded=0;whiteSpace=wrap;html=1;fontFamily=Helvetica;fontSize=14;fontColor=default;fillColor=default;gradientColor=none;strokeWidth=2;fontStyle=1" parent="1" vertex="1">
          <mxGeometry x="270" y="280" width="130" height="50" as="geometry" />
        </mxCell>
        <mxCell id="r6EsQnlumm87LjBTZvid-2" value="Server" style="rounded=0;whiteSpace=wrap;html=1;fontFamily=Helvetica;fontSize=14;fontColor=default;fillColor=default;gradientColor=none;strokeWidth=2;fontStyle=1" parent="1" vertex="1">
          <mxGeometry x="480" y="280" width="120" height="50" as="geometry" />
        </mxCell>
        <mxCell id="r6EsQnlumm87LjBTZvid-6" style="edgeStyle=orthogonalEdgeStyle;shape=connector;rounded=0;orthogonalLoop=1;jettySize=auto;html=1;exitX=0;exitY=0.5;exitDx=0;exitDy=0;entryX=0;entryY=0.5;entryDx=0;entryDy=0;labelBackgroundColor=default;strokeColor=default;strokeWidth=2;fontFamily=Helvetica;fontSize=14;fontColor=default;endArrow=blockThin;endFill=1;" parent="1" source="r6EsQnlumm87LjBTZvid-3" target="r6EsQnlumm87LjBTZvid-1" edge="1">
          <mxGeometry relative="1" as="geometry">
            <Array as="points">
              <mxPoint x="270" y="410" />
              <mxPoint x="240" y="410" />
              <mxPoint x="240" y="305" />
            </Array>
          </mxGeometry>
        </mxCell>
        <mxCell id="r6EsQnlumm87LjBTZvid-3" value="Gradle_User_Home" style="rounded=0;whiteSpace=wrap;html=1;fontFamily=Helvetica;fontSize=14;fontColor=default;fillColor=default;gradientColor=none;strokeWidth=2;fontStyle=1" parent="1" vertex="1">
          <mxGeometry x="265" y="390" width="140" height="50" as="geometry" />
        </mxCell>
        <mxCell id="r6EsQnlumm87LjBTZvid-7" value="1. 下载指定版本的Gradle" style="text;html=1;strokeColor=none;fillColor=none;align=center;verticalAlign=middle;whiteSpace=wrap;rounded=0;fontSize=14;fontFamily=Helvetica;fontColor=default;" parent="1" vertex="1">
          <mxGeometry x="350" y="250" width="180" height="30" as="geometry" />
        </mxCell>
        <mxCell id="r6EsQnlumm87LjBTZvid-8" value="2. 本地存储指定版本的Gradle，并解压" style="text;html=1;strokeColor=none;fillColor=none;align=center;verticalAlign=middle;whiteSpace=wrap;rounded=0;fontSize=14;fontFamily=Helvetica;fontColor=default;" parent="1" vertex="1">
          <mxGeometry x="335" y="347" width="255" height="30" as="geometry" />
        </mxCell>
        <mxCell id="r6EsQnlumm87LjBTZvid-9" value="3. 使用指定版本的Gradle" style="text;html=1;strokeColor=none;fillColor=none;align=center;verticalAlign=middle;whiteSpace=wrap;rounded=0;fontSize=14;fontFamily=Helvetica;fontColor=default;" parent="1" vertex="1">
          <mxGeometry x="70" y="347" width="165" height="30" as="geometry" />
        </mxCell>
        <mxCell id="r6EsQnlumm87LjBTZvid-13" value="&lt;span style=&quot;font-family: Helvetica; font-size: 14px; font-style: normal; font-variant-ligatures: normal; font-variant-caps: normal; font-weight: 400; letter-spacing: normal; orphans: 2; text-align: left; text-indent: 0px; text-transform: none; widows: 2; word-spacing: 0px; -webkit-text-stroke-width: 0px; background-color: rgb(251, 251, 251); text-decoration-thickness: initial; text-decoration-style: initial; text-decoration-color: initial; float: none; display: inline !important;&quot;&gt;zipStoreBase=GRADLE_USER_HOME&lt;/span&gt;&lt;br style=&quot;border-color: var(--border-color); padding: 0px; margin: 0px; font-family: Helvetica; font-size: 14px; font-style: normal; font-variant-ligatures: normal; font-variant-caps: normal; font-weight: 400; letter-spacing: normal; orphans: 2; text-align: left; text-indent: 0px; text-transform: none; widows: 2; word-spacing: 0px; -webkit-text-stroke-width: 0px; background-color: rgb(251, 251, 251); text-decoration-thickness: initial; text-decoration-style: initial; text-decoration-color: initial;&quot;&gt;&lt;span style=&quot;font-family: Helvetica; font-size: 14px; font-style: normal; font-variant-ligatures: normal; font-variant-caps: normal; font-weight: 400; letter-spacing: normal; orphans: 2; text-align: left; text-indent: 0px; text-transform: none; widows: 2; word-spacing: 0px; -webkit-text-stroke-width: 0px; background-color: rgb(251, 251, 251); text-decoration-thickness: initial; text-decoration-style: initial; text-decoration-color: initial; float: none; display: inline !important;&quot;&gt;zipStorePath=wrapper/dist&lt;/span&gt;" style="text;whiteSpace=wrap;html=1;fontSize=14;fontFamily=Helvetica;fontColor=#787878;verticalAlign=middle;" parent="1" vertex="1">
          <mxGeometry x="425" y="377" width="270" height="40" as="geometry" />
        </mxCell>
        <mxCell id="r6EsQnlumm87LjBTZvid-14" value="distributionUrl=https\://services.gradle.org/distributions/gradle-8.2.1-bin.zip" style="text;whiteSpace=wrap;fontSize=14;fontFamily=Helvetica;fontColor=#707070;verticalAlign=middle;" parent="1" vertex="1">
          <mxGeometry x="190" y="220" width="470" height="30" as="geometry" />
        </mxCell>
        <mxCell id="r6EsQnlumm87LjBTZvid-15" value="distributionBase=GRADLE_USER_HOME&#xa;distributionPath=wrapper/dists" style="text;whiteSpace=wrap;fontSize=14;fontFamily=Helvetica;fontColor=#707070;verticalAlign=middle;" parent="1" vertex="1">
          <mxGeometry x="425" y="430" width="270" height="40" as="geometry" />
        </mxCell>
        <mxCell id="r6EsQnlumm87LjBTZvid-16" value="&lt;p&gt;gradle wrapper&lt;/p&gt;" style="text;whiteSpace=wrap;html=1;fontSize=14;fontFamily=Helvetica;fontColor=#616161;verticalAlign=middle;" parent="1" vertex="1">
          <mxGeometry x="530" y="255" width="100" height="20" as="geometry" />
        </mxCell>
      </root>
    </mxGraphModel>
  </diagram>
  <diagram id="dMkldTn6wxuL8-ONpHum" name="GradleSystem">
    <mxGraphModel dx="954" dy="663" grid="1" gridSize="10" guides="1" tooltips="1" connect="1" arrows="1" fold="1" page="1" pageScale="1" pageWidth="850" pageHeight="1100" math="0" shadow="0">
      <root>
        <mxCell id="0" />
        <mxCell id="1" parent="0" />
        <mxCell id="Sc7QJ8DyczWwixLfpJxc-4" style="edgeStyle=orthogonalEdgeStyle;shape=connector;rounded=0;orthogonalLoop=1;jettySize=auto;html=1;exitX=0;exitY=0;exitDx=80;exitDy=30;exitPerimeter=0;entryX=0;entryY=0.5;entryDx=0;entryDy=0;entryPerimeter=0;labelBackgroundColor=default;strokeColor=default;strokeWidth=2;fontFamily=Helvetica;fontSize=11;fontColor=default;endArrow=none;endFill=0;" parent="1" source="6kbookeu8BUa2lcj1GPf-5" target="Sc7QJ8DyczWwixLfpJxc-1" edge="1">
          <mxGeometry relative="1" as="geometry" />
        </mxCell>
        <mxCell id="Sc7QJ8DyczWwixLfpJxc-6" style="edgeStyle=orthogonalEdgeStyle;shape=connector;rounded=0;orthogonalLoop=1;jettySize=auto;html=1;exitX=0;exitY=0;exitDx=80;exitDy=30;exitPerimeter=0;labelBackgroundColor=default;strokeColor=default;strokeWidth=2;fontFamily=Helvetica;fontSize=11;fontColor=default;endArrow=none;endFill=0;" parent="1" source="6kbookeu8BUa2lcj1GPf-5" target="Sc7QJ8DyczWwixLfpJxc-2" edge="1">
          <mxGeometry relative="1" as="geometry" />
        </mxCell>
        <mxCell id="6kbookeu8BUa2lcj1GPf-5" value="bin" style="shape=folder;fontStyle=0;spacingTop=10;tabWidth=40;tabHeight=10;tabPosition=left;html=1;whiteSpace=wrap;fontSize=15;" parent="1" vertex="1">
          <mxGeometry x="160" y="110" width="80" height="50" as="geometry" />
        </mxCell>
        <mxCell id="kLO_wyrLqG5llFYh5_kg-5" style="edgeStyle=orthogonalEdgeStyle;shape=connector;rounded=0;orthogonalLoop=1;jettySize=auto;html=1;exitX=0;exitY=0;exitDx=100;exitDy=40;exitPerimeter=0;entryX=0;entryY=0;entryDx=0;entryDy=30;entryPerimeter=0;labelBackgroundColor=default;strokeColor=default;strokeWidth=2;fontFamily=Helvetica;fontSize=11;fontColor=default;endArrow=none;endFill=0;" parent="1" source="6kbookeu8BUa2lcj1GPf-21" target="6kbookeu8BUa2lcj1GPf-5" edge="1">
          <mxGeometry relative="1" as="geometry" />
        </mxCell>
        <mxCell id="kLO_wyrLqG5llFYh5_kg-6" style="edgeStyle=orthogonalEdgeStyle;shape=connector;rounded=0;orthogonalLoop=1;jettySize=auto;html=1;exitX=0;exitY=0;exitDx=100;exitDy=40;exitPerimeter=0;entryX=0;entryY=0;entryDx=0;entryDy=20;entryPerimeter=0;labelBackgroundColor=default;strokeColor=default;strokeWidth=2;fontFamily=Helvetica;fontSize=11;fontColor=default;endArrow=none;endFill=0;" parent="1" source="6kbookeu8BUa2lcj1GPf-21" target="kLO_wyrLqG5llFYh5_kg-2" edge="1">
          <mxGeometry relative="1" as="geometry" />
        </mxCell>
        <mxCell id="kLO_wyrLqG5llFYh5_kg-7" style="edgeStyle=orthogonalEdgeStyle;shape=connector;rounded=0;orthogonalLoop=1;jettySize=auto;html=1;exitX=0;exitY=0;exitDx=100;exitDy=40;exitPerimeter=0;entryX=0;entryY=0;entryDx=0;entryDy=30;entryPerimeter=0;labelBackgroundColor=default;strokeColor=default;strokeWidth=2;fontFamily=Helvetica;fontSize=11;fontColor=default;endArrow=none;endFill=0;" parent="1" source="6kbookeu8BUa2lcj1GPf-21" target="kLO_wyrLqG5llFYh5_kg-1" edge="1">
          <mxGeometry relative="1" as="geometry" />
        </mxCell>
        <mxCell id="kLO_wyrLqG5llFYh5_kg-8" style="edgeStyle=orthogonalEdgeStyle;shape=connector;rounded=0;orthogonalLoop=1;jettySize=auto;html=1;exitX=0;exitY=0;exitDx=100;exitDy=40;exitPerimeter=0;entryX=0;entryY=0;entryDx=0;entryDy=30;entryPerimeter=0;labelBackgroundColor=default;strokeColor=default;strokeWidth=2;fontFamily=Helvetica;fontSize=11;fontColor=default;endArrow=none;endFill=0;" parent="1" source="6kbookeu8BUa2lcj1GPf-21" target="kLO_wyrLqG5llFYh5_kg-3" edge="1">
          <mxGeometry relative="1" as="geometry" />
        </mxCell>
        <mxCell id="kLO_wyrLqG5llFYh5_kg-9" style="edgeStyle=orthogonalEdgeStyle;shape=connector;rounded=0;orthogonalLoop=1;jettySize=auto;html=1;exitX=0;exitY=0;exitDx=100;exitDy=40;exitPerimeter=0;entryX=0;entryY=0;entryDx=0;entryDy=30;entryPerimeter=0;labelBackgroundColor=default;strokeColor=default;strokeWidth=2;fontFamily=Helvetica;fontSize=11;fontColor=default;endArrow=none;endFill=0;" parent="1" source="6kbookeu8BUa2lcj1GPf-21" target="kLO_wyrLqG5llFYh5_kg-4" edge="1">
          <mxGeometry relative="1" as="geometry" />
        </mxCell>
        <mxCell id="6kbookeu8BUa2lcj1GPf-21" value="Gradle" style="shape=folder;fontStyle=0;spacingTop=10;tabWidth=40;tabHeight=10;tabPosition=left;html=1;whiteSpace=wrap;fontSize=15;" parent="1" vertex="1">
          <mxGeometry x="20" y="250" width="100" height="70" as="geometry" />
        </mxCell>
        <mxCell id="kLO_wyrLqG5llFYh5_kg-1" value="docs" style="shape=folder;fontStyle=0;spacingTop=10;tabWidth=40;tabHeight=10;tabPosition=left;html=1;whiteSpace=wrap;fontSize=15;" parent="1" vertex="1">
          <mxGeometry x="160" y="190" width="80" height="50" as="geometry" />
        </mxCell>
        <mxCell id="kLO_wyrLqG5llFYh5_kg-2" value="init.d" style="shape=folder;fontStyle=0;spacingTop=10;tabWidth=40;tabHeight=10;tabPosition=left;html=1;whiteSpace=wrap;fontSize=15;" parent="1" vertex="1">
          <mxGeometry x="160" y="270" width="80" height="50" as="geometry" />
        </mxCell>
        <mxCell id="kLO_wyrLqG5llFYh5_kg-3" value="lib" style="shape=folder;fontStyle=0;spacingTop=10;tabWidth=40;tabHeight=10;tabPosition=left;html=1;whiteSpace=wrap;fontSize=15;" parent="1" vertex="1">
          <mxGeometry x="160" y="350" width="80" height="50" as="geometry" />
        </mxCell>
        <mxCell id="kLO_wyrLqG5llFYh5_kg-4" value="src" style="shape=folder;fontStyle=0;spacingTop=10;tabWidth=40;tabHeight=10;tabPosition=left;html=1;whiteSpace=wrap;fontSize=15;" parent="1" vertex="1">
          <mxGeometry x="160" y="430" width="80" height="50" as="geometry" />
        </mxCell>
        <mxCell id="Sc7QJ8DyczWwixLfpJxc-1" value="gradle" style="shape=note;whiteSpace=wrap;html=1;backgroundOutline=1;darkOpacity=0.05;size=12;fontSize=15;fontStyle=0" parent="1" vertex="1">
          <mxGeometry x="280" y="100" width="100" height="30" as="geometry" />
        </mxCell>
        <mxCell id="Sc7QJ8DyczWwixLfpJxc-2" value="gradle.bat" style="shape=note;whiteSpace=wrap;html=1;backgroundOutline=1;darkOpacity=0.05;size=11;fontSize=15;fontStyle=0" parent="1" vertex="1">
          <mxGeometry x="280" y="140" width="100" height="30" as="geometry" />
        </mxCell>
        <mxCell id="Sc7QJ8DyczWwixLfpJxc-7" value="存放.gradle文件等" style="text;html=1;strokeColor=none;fillColor=none;align=center;verticalAlign=middle;whiteSpace=wrap;rounded=0;fontSize=14;fontFamily=Helvetica;fontColor=default;" parent="1" vertex="1">
          <mxGeometry x="240" y="280" width="130" height="30" as="geometry" />
        </mxCell>
      </root>
    </mxGraphModel>
  </diagram>
  <diagram id="OU-R4t2qeEMkOzluZ2Zk" name="gradle-build执行顺序">
    <mxGraphModel dx="954" dy="663" grid="1" gridSize="10" guides="1" tooltips="1" connect="1" arrows="1" fold="1" page="1" pageScale="1" pageWidth="850" pageHeight="1100" math="0" shadow="0">
      <root>
        <mxCell id="0" />
        <mxCell id="1" parent="0" />
        <mxCell id="0CpR1W3E51XqLhjHAPmI-13" style="edgeStyle=orthogonalEdgeStyle;shape=connector;rounded=0;orthogonalLoop=1;jettySize=auto;html=1;exitX=0.5;exitY=1;exitDx=0;exitDy=0;labelBackgroundColor=default;strokeColor=default;strokeWidth=2;fontFamily=Helvetica;fontSize=11;fontColor=default;endArrow=blockThin;endFill=1;" parent="1" source="0CpR1W3E51XqLhjHAPmI-1" target="0CpR1W3E51XqLhjHAPmI-4" edge="1">
          <mxGeometry relative="1" as="geometry" />
        </mxCell>
        <mxCell id="0CpR1W3E51XqLhjHAPmI-1" value="gradle -init-script&amp;nbsp;&lt;br&gt;gradle -I" style="rounded=0;whiteSpace=wrap;html=1;fontFamily=Helvetica;fontSize=14;fontColor=default;" parent="1" vertex="1">
          <mxGeometry x="40" y="240" width="360" height="40" as="geometry" />
        </mxCell>
        <mxCell id="0CpR1W3E51XqLhjHAPmI-2" value="&lt;font style=&quot;font-size: 17px;&quot;&gt;&lt;b&gt;.gradle 执行顺序&lt;/b&gt;&lt;/font&gt;" style="text;html=1;strokeColor=none;fillColor=none;align=center;verticalAlign=middle;whiteSpace=wrap;rounded=0;fontSize=11;fontFamily=Helvetica;fontColor=default;" parent="1" vertex="1">
          <mxGeometry x="140" y="200" width="160" height="40" as="geometry" />
        </mxCell>
        <mxCell id="0CpR1W3E51XqLhjHAPmI-14" style="edgeStyle=orthogonalEdgeStyle;shape=connector;rounded=0;orthogonalLoop=1;jettySize=auto;html=1;exitX=0.5;exitY=1;exitDx=0;exitDy=0;labelBackgroundColor=default;strokeColor=default;strokeWidth=2;fontFamily=Helvetica;fontSize=11;fontColor=default;endArrow=blockThin;endFill=1;" parent="1" source="0CpR1W3E51XqLhjHAPmI-4" target="0CpR1W3E51XqLhjHAPmI-5" edge="1">
          <mxGeometry relative="1" as="geometry" />
        </mxCell>
        <mxCell id="0CpR1W3E51XqLhjHAPmI-4" value="GRADLE_USER_HOME/.gradle/init.gradle" style="rounded=0;whiteSpace=wrap;html=1;fontFamily=Helvetica;fontSize=14;fontColor=default;" parent="1" vertex="1">
          <mxGeometry x="40" y="320" width="360" height="40" as="geometry" />
        </mxCell>
        <mxCell id="0CpR1W3E51XqLhjHAPmI-15" style="edgeStyle=orthogonalEdgeStyle;shape=connector;rounded=0;orthogonalLoop=1;jettySize=auto;html=1;exitX=0.5;exitY=1;exitDx=0;exitDy=0;entryX=0.5;entryY=0;entryDx=0;entryDy=0;labelBackgroundColor=default;strokeColor=default;strokeWidth=2;fontFamily=Helvetica;fontSize=11;fontColor=default;endArrow=blockThin;endFill=1;" parent="1" source="0CpR1W3E51XqLhjHAPmI-5" target="0CpR1W3E51XqLhjHAPmI-6" edge="1">
          <mxGeometry relative="1" as="geometry" />
        </mxCell>
        <mxCell id="0CpR1W3E51XqLhjHAPmI-5" value="GRADLE_USER_HOME/.gradle/init.d/" style="rounded=0;whiteSpace=wrap;html=1;fontFamily=Helvetica;fontSize=14;fontColor=default;" parent="1" vertex="1">
          <mxGeometry x="40" y="400" width="360" height="40" as="geometry" />
        </mxCell>
        <mxCell id="0CpR1W3E51XqLhjHAPmI-6" value="GRADLE_HOME/init.d/" style="rounded=0;whiteSpace=wrap;html=1;fontFamily=Helvetica;fontSize=14;fontColor=default;" parent="1" vertex="1">
          <mxGeometry x="40" y="480" width="360" height="40" as="geometry" />
        </mxCell>
        <mxCell id="0CpR1W3E51XqLhjHAPmI-10" value="当存在多个.gradle文件时，按以上顺序依次执行。&lt;br&gt;当一个目录下存在多个.gradle文件，按字母顺序执行。" style="text;html=1;strokeColor=none;fillColor=none;align=left;verticalAlign=middle;whiteSpace=wrap;rounded=0;fontSize=14;fontFamily=Helvetica;fontColor=#808080;" parent="1" vertex="1">
          <mxGeometry x="40" y="535" width="360" height="30" as="geometry" />
        </mxCell>
        <mxCell id="xdrl7-ant4uD-IWOmLVP-1" value=".gradle" style="text;html=1;strokeColor=none;fillColor=none;align=center;verticalAlign=middle;whiteSpace=wrap;rounded=0;fontSize=14;" parent="1" vertex="1">
          <mxGeometry x="410" y="405" width="60" height="30" as="geometry" />
        </mxCell>
        <mxCell id="xdrl7-ant4uD-IWOmLVP-2" value="init.gradle" style="text;html=1;strokeColor=none;fillColor=none;align=center;verticalAlign=middle;whiteSpace=wrap;rounded=0;fontSize=14;" parent="1" vertex="1">
          <mxGeometry x="410" y="325" width="70" height="30" as="geometry" />
        </mxCell>
        <mxCell id="xdrl7-ant4uD-IWOmLVP-5" value=".gradle" style="text;html=1;strokeColor=none;fillColor=none;align=center;verticalAlign=middle;whiteSpace=wrap;rounded=0;fontSize=14;" parent="1" vertex="1">
          <mxGeometry x="410" y="485" width="60" height="30" as="geometry" />
        </mxCell>
      </root>
    </mxGraphModel>
  </diagram>
</mxfile>
